<svg width="332.7200073242187px" height="134.039990234375px" xmlns="http://www.w3.org/2000/svg" viewBox="83.63999633789064 7.980004882812494 332.7200073242187 134.039990234375" style="background: rgba(0, 0, 0, 0) none repeat scroll 0% 0%;" preserveAspectRatio="xMidYMid"><defs><linearGradient id="editing-shiny-gradient" x1="0.04322727117869957" x2="0.9567727288213004" y1="0.2966316784620999" y2="0.7033683215379001" gradientUnits="objectBoundingBox"><stop offset="0.0" stop-color="#ffb200"></stop><stop offset="0.5" stop-color="#e10057"></stop><stop offset="1.0" stop-color="#5A1A80"></stop></linearGradient><linearGradient id="editing-shiny-gradient2" x1="0" x2="0" y1="0" y2="1"><stop offset="0.2" stop-color="#fff" stop-opacity="0.8"></stop><stop offset="0.8" stop-color="#fff" stop-opacity="0"></stop></linearGradient><filter id="editing-shiny2" x="-100%" y="-100%" width="300%" height="300%"><feMorphology operator="erode" radius="2"></feMorphology></filter><filter id="editing-shiny" x="-100%" y="-100%" width="300%" height="300%"><feFlood flood-color="#fff" result="flood"></feFlood><feConvolveMatrix in="SourceGraphic" result="conv" order="8,8" divisor="1" kernelMatrix="0 0 0 0 0 0 0 0 0 0 0 1 1 0 0 0 0 0 0 1 1 0 0 0 0 0 1 0 0 1 0 0 0 0 1 0 0 1 0 0 0 1 0 0 0 0 1 0 0 1 1 0 0 1 1 0 0 0 0 1 1 0 0 0 "></feConvolveMatrix><feOffset dx="0" dy="4" in="conv" result="offset"></feOffset><feComposite operator="in" in="flood" in2="offset" result="comp"></feComposite><feGaussianBlur in="offset" stdDeviation="3" result="shadow"></feGaussianBlur><feColorMatrix in="shadow" type="matrix" values="0.7 0 0 0 0  0 0.7 0 0 0  0 0 0.7 0 0  0 0 0 0.3 0" result="dark-shadow"></feColorMatrix><feOffset dx="0" dy="4" in="dark-shadow" result="offset-shadow"></feOffset><feOffset dx="0" dy="2" in="conv" result="offset-2"></feOffset><feComposite operator="out" in="offset" in2="offset-2" result="edge-diff"></feComposite><feGaussianBlur in="edge-diff" stdDeviation="1" result="edge-blur"></feGaussianBlur><feColorMatrix in="edge-blur" result="edge-shadow" type="matrix" values="0 0 0 0 0  0 0 0 0 0  0 0 0 0 0  0 0 0 0.5 0"></feColorMatrix><feComposite operator="in" in="edge-shadow" in2="offset" result="edge-shadow-in"></feComposite><feOffset dx="0" dy="1" in="edge-shadow-in" result="edge-shadow-final"></feOffset><feMerge result="out"><feMergeNode in="offset-shadow"></feMergeNode><feMergeNode in="comp"></feMergeNode><feMergeNode in="edge-shadow-final"></feMergeNode><feMergeNode in="SourceGraphic"></feMergeNode></feMerge></filter></defs><g filter="url(#editing-shiny)"><g transform="translate(136.25, 100.65500068664551)"><path d="M27.81 0.25L18.06 0.25L3.75-46.06L12.31-46.06L23-6.31L34.31-46.06L42.81-46.06L27.81 0.25ZM66.88-35.44L66.88-35.44L66.88-35.44Q70.50-35.44 73.44-34.03L73.44-34.03L73.44-34.03Q76.38-32.63 78.44-30.19L78.44-30.19L78.44-30.19Q80.50-27.75 81.63-24.50L81.63-24.50L81.63-24.50Q82.75-21.25 82.75-17.50L82.75-17.50L82.75-17.50Q82.75-13.75 81.56-10.47L81.56-10.47L81.56-10.47Q80.38-7.19 78.22-4.78L78.22-4.78L78.22-4.78Q76.06-2.38 73.09-1.03L73.09-1.03L73.09-1.03Q70.13 0.31 66.50 0.31L66.50 0.31L66.50 0.31Q62.81 0.31 59.78-1.06L59.78-1.06L59.78-1.06Q56.75-2.44 54.66-4.88L54.66-4.88L54.66-4.88Q52.56-7.31 51.44-10.56L51.44-10.56L51.44-10.56Q50.31-13.81 50.31-17.63L50.31-17.63L50.31-17.63Q50.31-21.44 51.53-24.75L51.53-24.75L51.53-24.75Q52.75-28.06 54.91-30.41L54.91-30.41L54.91-30.41Q57.06-32.75 60.13-34.09L60.13-34.09L60.13-34.09Q63.19-35.44 66.88-35.44ZM66.38-5.63L66.38-5.63L66.38-5.63Q68.25-5.63 69.78-6.53L69.78-6.53L69.78-6.53Q71.31-7.44 72.41-9.03L72.41-9.03L72.41-9.03Q73.50-10.63 74.16-12.81L74.16-12.81L74.16-12.81Q74.81-15 74.81-17.50L74.81-17.50L74.81-17.50Q74.81-20 74.22-22.19L74.22-22.19L74.22-22.19Q73.63-24.38 72.59-26.03L72.59-26.03L72.59-26.03Q71.56-27.69 70.06-28.69L70.06-28.69L70.06-28.69Q68.56-29.69 66.69-29.69L66.69-29.69L66.69-29.69Q64.81-29.69 63.25-28.75L63.25-28.75L63.25-28.75Q61.69-27.81 60.59-26.22L60.59-26.22L60.59-26.22Q59.50-24.63 58.91-22.47L58.91-22.47L58.91-22.47Q58.31-20.31 58.31-17.81L58.31-17.81L58.31-17.81Q58.31-15.31 58.84-13.09L58.84-13.09L58.84-13.09Q59.38-10.88 60.44-9.25L60.44-9.25L60.44-9.25Q61.50-7.63 62.97-6.63L62.97-6.63L62.97-6.63Q64.44-5.63 66.38-5.63ZM108.25-35.44L108.25-35.44L108.25-35.44Q111.88-35.44 114.81-34.03L114.81-34.03L114.81-34.03Q117.75-32.63 119.81-30.19L119.81-30.19L119.81-30.19Q121.88-27.75 123-24.50L123-24.50L123-24.50Q124.13-21.25 124.13-17.50L124.13-17.50L124.13-17.50Q124.13-13.75 122.94-10.47L122.94-10.47L122.94-10.47Q121.75-7.19 119.59-4.78L119.59-4.78L119.59-4.78Q117.44-2.38 114.47-1.03L114.47-1.03L114.47-1.03Q111.50 0.31 107.88 0.31L107.88 0.31L107.88 0.31Q104.19 0.31 101.16-1.06L101.16-1.06L101.16-1.06Q98.13-2.44 96.03-4.88L96.03-4.88L96.03-4.88Q93.94-7.31 92.81-10.56L92.81-10.56L92.81-10.56Q91.69-13.81 91.69-17.63L91.69-17.63L91.69-17.63Q91.69-21.44 92.91-24.75L92.91-24.75L92.91-24.75Q94.13-28.06 96.28-30.41L96.28-30.41L96.28-30.41Q98.44-32.75 101.50-34.09L101.50-34.09L101.50-34.09Q104.56-35.44 108.25-35.44ZM107.75-5.63L107.75-5.63L107.75-5.63Q109.63-5.63 111.16-6.53L111.16-6.53L111.16-6.53Q112.69-7.44 113.78-9.03L113.78-9.03L113.78-9.03Q114.88-10.63 115.53-12.81L115.53-12.81L115.53-12.81Q116.19-15 116.19-17.50L116.19-17.50L116.19-17.50Q116.19-20 115.59-22.19L115.59-22.19L115.59-22.19Q115-24.38 113.97-26.03L113.97-26.03L113.97-26.03Q112.94-27.69 111.44-28.69L111.44-28.69L111.44-28.69Q109.94-29.69 108.06-29.69L108.06-29.69L108.06-29.69Q106.19-29.69 104.63-28.75L104.63-28.75L104.63-28.75Q103.06-27.81 101.97-26.22L101.97-26.22L101.97-26.22Q100.88-24.63 100.28-22.47L100.28-22.47L100.28-22.47Q99.69-20.31 99.69-17.81L99.69-17.81L99.69-17.81Q99.69-15.31 100.22-13.09L100.22-13.09L100.22-13.09Q100.75-10.88 101.81-9.25L101.81-9.25L101.81-9.25Q102.88-7.63 104.34-6.63L104.34-6.63L104.34-6.63Q105.81-5.63 107.75-5.63ZM136.31-3.56L136.31-3.56L136.31-3.56Q133.94-6.25 132.81-10.19L132.81-10.19L132.81-10.19Q131.69-14.13 131.69-18.13L131.69-18.13L131.69-18.13Q131.69-23 133.03-26.31L133.03-26.31L133.03-26.31Q134.38-29.63 136.50-31.69L136.50-31.69L136.50-31.69Q138.63-33.75 141.22-34.66L141.22-34.66L141.22-34.66Q143.81-35.56 146.31-35.56L146.31-35.56L146.31-35.56Q149.38-35.56 151.91-34.50L151.91-34.50L151.91-34.50Q154.44-33.44 155.69-31.69L155.69-31.69L155.69-48.56L163.31-48.56L163.31 0L156.13 0L156.13 0Q156-1.06 155.91-2.16L155.91-2.16L155.91-2.16Q155.81-3.25 155.69-4.19L155.69-4.19L155.69-4.19Q155.50-3.38 154.59-2.56L154.59-2.56L154.59-2.56Q153.69-1.75 152.28-1.09L152.28-1.09L152.28-1.09Q150.88-0.44 149.13-0.06L149.13-0.06L149.13-0.06Q147.38 0.31 145.50 0.31L145.50 0.31L145.50 0.31Q143 0.31 140.59-0.56L140.59-0.56L140.59-0.56Q138.19-1.44 136.31-3.56ZM139.69-17.56L139.69-17.56L139.69-17.56Q139.69-15.06 140.31-12.91L140.31-12.91L140.31-12.91Q140.94-10.75 142-9.13L142-9.13L142-9.13Q143.06-7.50 144.59-6.56L144.59-6.56L144.59-6.56Q146.13-5.63 147.94-5.63L147.94-5.63L147.94-5.63Q149.88-5.63 151.41-6.59L151.41-6.59L151.41-6.59Q152.94-7.56 154-9.19L154-9.19L154-9.19Q155.06-10.81 155.63-13L155.63-13L155.63-13Q156.19-15.19 156.19-17.69L156.19-17.69L156.19-17.69Q156.19-20.19 155.59-22.38L155.59-22.38L155.59-22.38Q155-24.56 153.91-26.19L153.91-26.19L153.91-26.19Q152.81-27.81 151.28-28.78L151.28-28.78L151.28-28.78Q149.75-29.75 147.81-29.75L147.81-29.75L147.81-29.75Q145.88-29.75 144.38-28.78L144.38-28.78L144.38-28.78Q142.88-27.81 141.84-26.13L141.84-26.13L141.84-26.13Q140.81-24.44 140.25-22.25L140.25-22.25L140.25-22.25Q139.69-20.06 139.69-17.56ZM181.56-35.25L181.56 0L173.94 0L173.94-35.25L181.56-35.25ZM182.25-46.50L182.25-46.50L182.25-46.50Q182.25-44.63 180.94-43.34L180.94-43.34L180.94-43.34Q179.63-42.06 177.75-42.06L177.75-42.06L177.75-42.06Q175.88-42.06 174.59-43.38L174.59-43.38L174.59-43.38Q173.31-44.69 173.31-46.50L173.31-46.50L173.31-46.50Q173.31-48.38 174.63-49.69L174.63-49.69L174.63-49.69Q175.94-51 177.75-51L177.75-51L177.75-51Q179.63-51 180.94-49.69L180.94-49.69L180.94-49.69Q182.25-48.38 182.25-46.50ZM207.88-35.44L207.88-35.44L207.88-35.44Q211.50-35.44 214.44-34.03L214.44-34.03L214.44-34.03Q217.38-32.63 219.44-30.19L219.44-30.19L219.44-30.19Q221.50-27.75 222.63-24.50L222.63-24.50L222.63-24.50Q223.75-21.25 223.75-17.50L223.75-17.50L223.75-17.50Q223.75-13.75 222.56-10.47L222.56-10.47L222.56-10.47Q221.38-7.19 219.22-4.78L219.22-4.78L219.22-4.78Q217.06-2.38 214.09-1.03L214.09-1.03L214.09-1.03Q211.13 0.31 207.50 0.31L207.50 0.31L207.50 0.31Q203.81 0.31 200.78-1.06L200.78-1.06L200.78-1.06Q197.75-2.44 195.66-4.88L195.66-4.88L195.66-4.88Q193.56-7.31 192.44-10.56L192.44-10.56L192.44-10.56Q191.31-13.81 191.31-17.63L191.31-17.63L191.31-17.63Q191.31-21.44 192.53-24.75L192.53-24.75L192.53-24.75Q193.75-28.06 195.91-30.41L195.91-30.41L195.91-30.41Q198.06-32.75 201.13-34.09L201.13-34.09L201.13-34.09Q204.19-35.44 207.88-35.44ZM207.38-5.63L207.38-5.63L207.38-5.63Q209.25-5.63 210.78-6.53L210.78-6.53L210.78-6.53Q212.31-7.44 213.41-9.03L213.41-9.03L213.41-9.03Q214.50-10.63 215.16-12.81L215.16-12.81L215.16-12.81Q215.81-15 215.81-17.50L215.81-17.50L215.81-17.50Q215.81-20 215.22-22.19L215.22-22.19L215.22-22.19Q214.63-24.38 213.59-26.03L213.59-26.03L213.59-26.03Q212.56-27.69 211.06-28.69L211.06-28.69L211.06-28.69Q209.56-29.69 207.69-29.69L207.69-29.69L207.69-29.69Q205.81-29.69 204.25-28.75L204.25-28.75L204.25-28.75Q202.69-27.81 201.59-26.22L201.59-26.22L201.59-26.22Q200.50-24.63 199.91-22.47L199.91-22.47L199.91-22.47Q199.31-20.31 199.31-17.81L199.31-17.81L199.31-17.81Q199.31-15.31 199.84-13.09L199.84-13.09L199.84-13.09Q200.38-10.88 201.44-9.25L201.44-9.25L201.44-9.25Q202.50-7.63 203.97-6.63L203.97-6.63L203.97-6.63Q205.44-5.63 207.38-5.63Z" fill="url(#editing-shiny-gradient)"></path></g></g><g filter="url(#editing-shiny2)"><g transform="translate(136.25, 100.65500068664551)"><path d="M27.81 0.25L18.06 0.25L3.75-46.06L12.31-46.06L23-6.31L34.31-46.06L42.81-46.06L27.81 0.25ZM66.88-35.44L66.88-35.44L66.88-35.44Q70.50-35.44 73.44-34.03L73.44-34.03L73.44-34.03Q76.38-32.63 78.44-30.19L78.44-30.19L78.44-30.19Q80.50-27.75 81.63-24.50L81.63-24.50L81.63-24.50Q82.75-21.25 82.75-17.50L82.75-17.50L82.75-17.50Q82.75-13.75 81.56-10.47L81.56-10.47L81.56-10.47Q80.38-7.19 78.22-4.78L78.22-4.78L78.22-4.78Q76.06-2.38 73.09-1.03L73.09-1.03L73.09-1.03Q70.13 0.31 66.50 0.31L66.50 0.31L66.50 0.31Q62.81 0.31 59.78-1.06L59.78-1.06L59.78-1.06Q56.75-2.44 54.66-4.88L54.66-4.88L54.66-4.88Q52.56-7.31 51.44-10.56L51.44-10.56L51.44-10.56Q50.31-13.81 50.31-17.63L50.31-17.63L50.31-17.63Q50.31-21.44 51.53-24.75L51.53-24.75L51.53-24.75Q52.75-28.06 54.91-30.41L54.91-30.41L54.91-30.41Q57.06-32.75 60.13-34.09L60.13-34.09L60.13-34.09Q63.19-35.44 66.88-35.44ZM66.38-5.63L66.38-5.63L66.38-5.63Q68.25-5.63 69.78-6.53L69.78-6.53L69.78-6.53Q71.31-7.44 72.41-9.03L72.41-9.03L72.41-9.03Q73.50-10.63 74.16-12.81L74.16-12.81L74.16-12.81Q74.81-15 74.81-17.50L74.81-17.50L74.81-17.50Q74.81-20 74.22-22.19L74.22-22.19L74.22-22.19Q73.63-24.38 72.59-26.03L72.59-26.03L72.59-26.03Q71.56-27.69 70.06-28.69L70.06-28.69L70.06-28.69Q68.56-29.69 66.69-29.69L66.69-29.69L66.69-29.69Q64.81-29.69 63.25-28.75L63.25-28.75L63.25-28.75Q61.69-27.81 60.59-26.22L60.59-26.22L60.59-26.22Q59.50-24.63 58.91-22.47L58.91-22.47L58.91-22.47Q58.31-20.31 58.31-17.81L58.31-17.81L58.31-17.81Q58.31-15.31 58.84-13.09L58.84-13.09L58.84-13.09Q59.38-10.88 60.44-9.25L60.44-9.25L60.44-9.25Q61.50-7.63 62.97-6.63L62.97-6.63L62.97-6.63Q64.44-5.63 66.38-5.63ZM108.25-35.44L108.25-35.44L108.25-35.44Q111.88-35.44 114.81-34.03L114.81-34.03L114.81-34.03Q117.75-32.63 119.81-30.19L119.81-30.19L119.81-30.19Q121.88-27.75 123-24.50L123-24.50L123-24.50Q124.13-21.25 124.13-17.50L124.13-17.50L124.13-17.50Q124.13-13.75 122.94-10.47L122.94-10.47L122.94-10.47Q121.75-7.19 119.59-4.78L119.59-4.78L119.59-4.78Q117.44-2.38 114.47-1.03L114.47-1.03L114.47-1.03Q111.50 0.31 107.88 0.31L107.88 0.31L107.88 0.31Q104.19 0.31 101.16-1.06L101.16-1.06L101.16-1.06Q98.13-2.44 96.03-4.88L96.03-4.88L96.03-4.88Q93.94-7.31 92.81-10.56L92.81-10.56L92.81-10.56Q91.69-13.81 91.69-17.63L91.69-17.63L91.69-17.63Q91.69-21.44 92.91-24.75L92.91-24.75L92.91-24.75Q94.13-28.06 96.28-30.41L96.28-30.41L96.28-30.41Q98.44-32.75 101.50-34.09L101.50-34.09L101.50-34.09Q104.56-35.44 108.25-35.44ZM107.75-5.63L107.75-5.63L107.75-5.63Q109.63-5.63 111.16-6.53L111.16-6.53L111.16-6.53Q112.69-7.44 113.78-9.03L113.78-9.03L113.78-9.03Q114.88-10.63 115.53-12.81L115.53-12.81L115.53-12.81Q116.19-15 116.19-17.50L116.19-17.50L116.19-17.50Q116.19-20 115.59-22.19L115.59-22.19L115.59-22.19Q115-24.38 113.97-26.03L113.97-26.03L113.97-26.03Q112.94-27.69 111.44-28.69L111.44-28.69L111.44-28.69Q109.94-29.69 108.06-29.69L108.06-29.69L108.06-29.69Q106.19-29.69 104.63-28.75L104.63-28.75L104.63-28.75Q103.06-27.81 101.97-26.22L101.97-26.22L101.97-26.22Q100.88-24.63 100.28-22.47L100.28-22.47L100.28-22.47Q99.69-20.31 99.69-17.81L99.69-17.81L99.69-17.81Q99.69-15.31 100.22-13.09L100.22-13.09L100.22-13.09Q100.75-10.88 101.81-9.25L101.81-9.25L101.81-9.25Q102.88-7.63 104.34-6.63L104.34-6.63L104.34-6.63Q105.81-5.63 107.75-5.63ZM136.31-3.56L136.31-3.56L136.31-3.56Q133.94-6.25 132.81-10.19L132.81-10.19L132.81-10.19Q131.69-14.13 131.69-18.13L131.69-18.13L131.69-18.13Q131.69-23 133.03-26.31L133.03-26.31L133.03-26.31Q134.38-29.63 136.50-31.69L136.50-31.69L136.50-31.69Q138.63-33.75 141.22-34.66L141.22-34.66L141.22-34.66Q143.81-35.56 146.31-35.56L146.31-35.56L146.31-35.56Q149.38-35.56 151.91-34.50L151.91-34.50L151.91-34.50Q154.44-33.44 155.69-31.69L155.69-31.69L155.69-48.56L163.31-48.56L163.31 0L156.13 0L156.13 0Q156-1.06 155.91-2.16L155.91-2.16L155.91-2.16Q155.81-3.25 155.69-4.19L155.69-4.19L155.69-4.19Q155.50-3.38 154.59-2.56L154.59-2.56L154.59-2.56Q153.69-1.75 152.28-1.09L152.28-1.09L152.28-1.09Q150.88-0.44 149.13-0.06L149.13-0.06L149.13-0.06Q147.38 0.31 145.50 0.31L145.50 0.31L145.50 0.31Q143 0.31 140.59-0.56L140.59-0.56L140.59-0.56Q138.19-1.44 136.31-3.56ZM139.69-17.56L139.69-17.56L139.69-17.56Q139.69-15.06 140.31-12.91L140.31-12.91L140.31-12.91Q140.94-10.75 142-9.13L142-9.13L142-9.13Q143.06-7.50 144.59-6.56L144.59-6.56L144.59-6.56Q146.13-5.63 147.94-5.63L147.94-5.63L147.94-5.63Q149.88-5.63 151.41-6.59L151.41-6.59L151.41-6.59Q152.94-7.56 154-9.19L154-9.19L154-9.19Q155.06-10.81 155.63-13L155.63-13L155.63-13Q156.19-15.19 156.19-17.69L156.19-17.69L156.19-17.69Q156.19-20.19 155.59-22.38L155.59-22.38L155.59-22.38Q155-24.56 153.91-26.19L153.91-26.19L153.91-26.19Q152.81-27.81 151.28-28.78L151.28-28.78L151.28-28.78Q149.75-29.75 147.81-29.75L147.81-29.75L147.81-29.75Q145.88-29.75 144.38-28.78L144.38-28.78L144.38-28.78Q142.88-27.81 141.84-26.13L141.84-26.13L141.84-26.13Q140.81-24.44 140.25-22.25L140.25-22.25L140.25-22.25Q139.69-20.06 139.69-17.56ZM181.56-35.25L181.56 0L173.94 0L173.94-35.25L181.56-35.25ZM182.25-46.50L182.25-46.50L182.25-46.50Q182.25-44.63 180.94-43.34L180.94-43.34L180.94-43.34Q179.63-42.06 177.75-42.06L177.75-42.06L177.75-42.06Q175.88-42.06 174.59-43.38L174.59-43.38L174.59-43.38Q173.31-44.69 173.31-46.50L173.31-46.50L173.31-46.50Q173.31-48.38 174.63-49.69L174.63-49.69L174.63-49.69Q175.94-51 177.75-51L177.75-51L177.75-51Q179.63-51 180.94-49.69L180.94-49.69L180.94-49.69Q182.25-48.38 182.25-46.50ZM207.88-35.44L207.88-35.44L207.88-35.44Q211.50-35.44 214.44-34.03L214.44-34.03L214.44-34.03Q217.38-32.63 219.44-30.19L219.44-30.19L219.44-30.19Q221.50-27.75 222.63-24.50L222.63-24.50L222.63-24.50Q223.75-21.25 223.75-17.50L223.75-17.50L223.75-17.50Q223.75-13.75 222.56-10.47L222.56-10.47L222.56-10.47Q221.38-7.19 219.22-4.78L219.22-4.78L219.22-4.78Q217.06-2.38 214.09-1.03L214.09-1.03L214.09-1.03Q211.13 0.31 207.50 0.31L207.50 0.31L207.50 0.31Q203.81 0.31 200.78-1.06L200.78-1.06L200.78-1.06Q197.75-2.44 195.66-4.88L195.66-4.88L195.66-4.88Q193.56-7.31 192.44-10.56L192.44-10.56L192.44-10.56Q191.31-13.81 191.31-17.63L191.31-17.63L191.31-17.63Q191.31-21.44 192.53-24.75L192.53-24.75L192.53-24.75Q193.75-28.06 195.91-30.41L195.91-30.41L195.91-30.41Q198.06-32.75 201.13-34.09L201.13-34.09L201.13-34.09Q204.19-35.44 207.88-35.44ZM207.38-5.63L207.38-5.63L207.38-5.63Q209.25-5.63 210.78-6.53L210.78-6.53L210.78-6.53Q212.31-7.44 213.41-9.03L213.41-9.03L213.41-9.03Q214.50-10.63 215.16-12.81L215.16-12.81L215.16-12.81Q215.81-15 215.81-17.50L215.81-17.50L215.81-17.50Q215.81-20 215.22-22.19L215.22-22.19L215.22-22.19Q214.63-24.38 213.59-26.03L213.59-26.03L213.59-26.03Q212.56-27.69 211.06-28.69L211.06-28.69L211.06-28.69Q209.56-29.69 207.69-29.69L207.69-29.69L207.69-29.69Q205.81-29.69 204.25-28.75L204.25-28.75L204.25-28.75Q202.69-27.81 201.59-26.22L201.59-26.22L201.59-26.22Q200.50-24.63 199.91-22.47L199.91-22.47L199.91-22.47Q199.31-20.31 199.31-17.81L199.31-17.81L199.31-17.81Q199.31-15.31 199.84-13.09L199.84-13.09L199.84-13.09Q200.38-10.88 201.44-9.25L201.44-9.25L201.44-9.25Q202.50-7.63 203.97-6.63L203.97-6.63L203.97-6.63Q205.44-5.63 207.38-5.63Z" fill="url(#editing-shiny-gradient2)"></path></g></g><style>text {
  font-size: 64px;
  font-family: Arial Black;
  dominant-baseline: central;
  text-anchor: middle;
}</style></svg>