<?xml version="1.0" encoding="iso-8859-1"?>
<!-- Generator: Adobe Illustrator 19.0.0, SVG Export Plug-In . SVG Version: 6.00 Build 0)  -->
<svg version="1.1" id="Capa_1" xmlns="http://www.w3.org/2000/svg" xmlns:xlink="http://www.w3.org/1999/xlink" x="0px" y="0px"
	 viewBox="0 0 480.857 480.857" style="enable-background:new 0 0 480.857 480.857;" xml:space="preserve">
<path style="fill:#FDB62F;" d="M428.593,141.45c-1.266-7.231-5.732-13.503-12.152-17.064c-5.938-3.65-13.242-4.307-19.736-1.776
	c0-0.512,0.152-1,0.152-1.52c0.113-13.139-10.446-23.883-23.586-23.997c-2.924-0.025-5.828,0.489-8.566,1.517
	c0-0.512,0.152-1,0.152-1.52c0-13.255-10.745-24-24-24c0-13.255-10.745-24-24-24c-0.52,0-1.008,0.12-1.52,0.152
	c2.151-5.487,2.012-11.608-0.384-16.992c-3.442-8.278-11.094-14.045-20-15.072c-7.371-0.634-14.619,2.192-19.616,7.648
	c-4.493-12.442-18.221-18.886-30.663-14.394c-9.537,3.444-15.872,12.519-15.817,22.658c0.022-13.233-10.687-23.978-23.919-24.001
	c-8.25-0.014-15.927,4.218-20.321,11.201c-5.229-3.061-11.444-3.965-17.328-2.52c-9.182,2.267-16.216,9.654-18.032,18.936
	c-1.358,7.404,0.868,15.014,6,20.52c-7.605,0.498-14.516,4.597-18.6,11.032c-5.919-3.468-13.064-4.155-19.536-1.88
	c-6.901,2.382-12.352,7.763-14.824,14.632c-2.01,5.515-1.896,11.581,0.32,17.016c-10.455,2.792-17.736,12.251-17.76,23.072
	c0,0.52,0.12,1.008,0.152,1.52c-6.476-2.523-13.759-1.875-19.688,1.752c-6.439,3.559-10.921,9.842-12.192,17.088
	c-1.462,9.574,2.999,19.084,11.296,24.08l4.432,3.568h28v31.32h280V169.09h36l-1.12-1.12
	C423.193,164.583,430.391,153.26,428.593,141.45z"/>
<path style="fill:#DE0418;" d="M120.857,472.426L51.393,198.074c-4.63-20.053,7.872-40.062,27.925-44.693
	c2.751-0.635,5.564-0.956,8.387-0.955h0.352c18.752-0.003,34.585,13.928,36.968,32.528l43.832,287.472H120.857z"/>
<path style="fill:#FCE9CC;" d="M168.857,472.426l-42.616-277.992c-2.62-20.413,11.804-39.085,32.217-41.705
	c1.576-0.202,3.163-0.304,4.751-0.303h1.328c20.211-0.002,36.74,16.107,37.256,36.312l15.064,283.688H168.857z"/>
<path style="fill:#DE0418;" d="M201.841,190.65l15.016,281.776h48l13.992-280.8c1.069-20.553-14.725-38.08-35.278-39.15
	c-0.638-0.033-1.276-0.05-1.914-0.05h-2.536c-20.58-0.016-37.277,16.655-37.292,37.236
	C201.829,189.991,201.833,190.32,201.841,190.65L201.841,190.65z"/>
<path style="fill:#FCE9CC;" d="M279.041,187.786l-14.184,284.64h48l41.392-277.064c3.133-20.341-10.817-39.369-31.158-42.502
	c-1.878-0.289-3.774-0.434-5.674-0.434h-1.16C296.417,152.425,280.055,167.971,279.041,187.786z"/>
<path style="fill:#DE0418;" d="M392.857,152.426c20.58,0,37.264,16.684,37.264,37.264c0,3.122-0.392,6.232-1.168,9.256
	l-68.096,273.48h-48l43.136-288.4C358.791,165.834,374.451,152.409,392.857,152.426z"/>
<g>
	<path style="fill:#FDB62F;" d="M136.857,272.426h208v96h-208V272.426z"/>
	<path style="fill:#FDB62F;" d="M80.857,32.426C80.909,19.215,70.241,8.464,57.031,8.412c-8.86-0.035-17.013,4.831-21.19,12.645
		c-0.987-0.162-1.984-0.26-2.984-0.296c-13.255,0-24,10.745-24,24s10.745,24,24,24c1.116-0.034,2.228-0.146,3.328-0.336
		c6.501,11.49,21.086,15.534,32.576,9.033c11.49-6.501,15.534-21.086,9.033-32.576c-0.087-0.153-0.175-0.305-0.265-0.456
		C79.686,40.793,80.834,36.65,80.857,32.426z"/>
	<path style="fill:#FDB62F;" d="M472.857,48.426c0.052-13.211-10.616-23.962-23.826-24.013c-8.86-0.035-17.013,4.831-21.19,12.645
		c-0.987-0.162-1.984-0.26-2.984-0.296c-13.255,0-24,10.745-24,24s10.745,24,24,24c1.116-0.034,2.228-0.146,3.328-0.336
		c6.501,11.49,21.086,15.534,32.576,9.033s15.534-21.086,9.033-32.576c-0.087-0.153-0.175-0.305-0.265-0.457
		C471.686,56.793,472.834,52.65,472.857,48.426z"/>
</g>
<path d="M436.505,140.282c-1.621-9.653-7.532-18.05-16.072-22.832c-5.017-2.961-10.76-4.465-16.584-4.344
	c-3.843-14.431-17.07-24.351-32-24c-3.006-11.558-12.176-20.494-23.808-23.2c-2.708-11.631-11.643-20.8-23.2-23.808
	c0.145-4.484-0.727-8.942-2.552-13.04c-4.653-10.952-14.859-18.536-26.688-19.832c-6.224-0.536-12.468,0.775-17.952,3.768
	c-11.029-13.713-31.087-15.889-44.8-4.86c-1.442,1.16-2.781,2.444-4,3.836C217.227-1.274,197.07-2.59,183.826,9.032
	c-0.559,0.491-1.101,1.001-1.625,1.529c-5.442-1.73-11.257-1.918-16.8-0.544c-12.239,3.042-21.602,12.907-24,25.288
	c-1.044,5.74-0.49,11.657,1.6,17.104c-3.225,1.553-6.167,3.635-8.704,6.16c-6.437-2.058-13.371-1.954-19.744,0.296
	c-9.227,3.17-16.51,10.365-19.792,19.552c-1.719,4.774-2.267,9.89-1.6,14.92c-7.55,4.267-13.055,11.405-15.264,19.792
	c-5.817-0.206-11.567,1.293-16.544,4.312c-8.557,4.784-14.485,13.189-16.12,22.856c-1.244,8.199,0.766,16.559,5.6,23.296
	c-7.536,10.552-10.16,23.84-7.2,36.464l71,280.368h252.48l69.6-279.496c3.237-12.534,0.904-25.856-6.4-36.544
	C435.592,157.539,437.831,148.825,436.505,140.282L436.505,140.282z M69.305,131.29c3.884-2.457,8.715-2.892,12.976-1.168
	c4.154,1.506,8.742-0.641,10.247-4.795c0.372-1.026,0.53-2.116,0.465-3.205c0-0.2-0.112-0.8-0.136-1.024
	c0.041-7.203,4.891-13.491,11.848-15.36c4.264-1.157,6.783-5.552,5.626-9.816c-0.082-0.302-0.181-0.598-0.298-0.888
	c-1.491-3.614-1.574-7.656-0.232-11.328c1.665-4.552,5.281-8.118,9.856-9.72c4.308-1.536,9.076-1.073,13.008,1.264
	c3.708,2.1,8.411,0.925,10.696-2.672c2.712-4.298,7.327-7.028,12.4-7.336c4.408-0.303,7.736-4.122,7.433-8.53
	c-0.124-1.811-0.861-3.525-2.089-4.862c-3.444-3.675-4.929-8.771-4-13.72c1.233-6.192,5.951-11.103,12.088-12.584
	c3.904-0.975,8.035-0.362,11.488,1.704c3.708,2.1,8.411,0.925,10.696-2.672c4.76-7.445,14.654-9.622,22.099-4.862
	c4.567,2.92,7.345,7.953,7.381,13.374c0,4.418,3.582,8,8,8s8-3.582,8-8c-0.008-8.81,7.128-15.958,15.938-15.966
	c6.713-0.006,12.712,4.192,15.006,10.502c0.962,2.612,3.214,4.536,5.944,5.08c2.727,0.564,5.55-0.348,7.432-2.4
	c3.336-3.629,8.159-5.518,13.072-5.12c5.988,0.772,11.097,4.709,13.368,10.304c1.59,3.5,1.663,7.501,0.2,11.056
	c-1.511,4.152,0.63,8.743,4.782,10.254c0.878,0.319,1.804,0.483,2.738,0.482c0.352,0,1.16-0.112,1.512-0.152c8.837,0,16,7.163,16,16
	c0,4.418,3.582,8,8,8c8.75-0.001,15.878,7.027,16,15.776c0,0.2-0.12,1.048-0.136,1.248c-0.266,4.41,3.093,8.201,7.504,8.467
	c1.093,0.066,2.188-0.093,3.216-0.467c1.73-0.661,3.564-1.01,5.416-1.032c8.75-0.001,15.878,7.027,16,15.776
	c0,0.2-0.12,1.048-0.136,1.248c-0.264,4.41,3.096,8.2,7.507,8.465c1.089,0.065,2.18-0.093,3.205-0.465
	c4.273-1.719,9.112-1.282,13.008,1.176c4.307,2.333,7.33,6.488,8.224,11.304c0.528,3.454-0.099,6.987-1.784,10.048l-0.192-0.12
	c-1.656-1.148-3.388-2.182-5.184-3.096c-0.432-0.224-0.864-0.424-1.304-0.632c-1.71-0.822-3.471-1.532-5.272-2.128
	c-0.16-0.048-0.304-0.12-0.464-0.168c-1.95-0.599-3.939-1.064-5.952-1.392c-0.488-0.08-0.968-0.152-1.456-0.224
	c-2.051-0.302-4.119-0.465-6.192-0.488c-15.128,0.015-29.244,7.605-37.6,20.216l-0.104,0.168l-0.088-0.16
	c-8.367-12.625-22.502-20.219-37.648-20.224h-1.16c-14.955,0.029-28.924,7.462-37.304,19.848
	c-8.379-12.383-22.345-19.815-37.296-19.848h-2.536c-14.934,0.004-28.899,7.392-37.304,19.736
	c-8.403-12.338-22.36-19.726-37.288-19.736h-1.328c-15.122,0.016-29.234,7.594-37.6,20.192
	c-9.997-15.131-28.104-22.777-45.92-19.392c-0.8,0.136-1.536,0.336-2.304,0.52c-1.902,0.439-3.772,1.003-5.6,1.688
	c-0.744,0.28-1.496,0.544-2.224,0.864c-2.258,0.976-4.43,2.137-6.496,3.472c-0.16,0.104-0.344,0.184-0.504,0.288l-0.072,0.04
	c-1.448-2.929-1.954-6.236-1.448-9.464C61.93,137.795,64.972,133.623,69.305,131.29L69.305,131.29z M346.337,194.186l-10.488,70.24
	h-52.592l3.8-76.232c0.283-5.246,1.996-10.314,4.952-14.656c5.382-8.154,14.486-13.076,24.256-13.112h1.16
	c9.802,0.005,18.949,4.923,24.36,13.096C345.839,179.595,347.464,186.97,346.337,194.186L346.337,194.186z M209.873,190.082
	c-0.23-16.147,12.674-29.423,28.821-29.653c0.132-0.002,0.263-0.003,0.395-0.003h2.568c9.785,0.02,18.91,4.94,24.304,13.104
	c3.514,5.198,5.243,11.397,4.928,17.664l-3.68,73.232h-53.392l-3.928-73.904L209.873,190.082z M138.857,173.522
	c5.409-8.171,14.553-13.088,24.352-13.096h1.328c15.924,0.095,28.888,12.832,29.264,28.752l0.048,0.872v0.312l3.912,74.064h-52.52
	l-11.2-73.68c-0.246-6.108,1.454-12.137,4.856-17.216L138.857,173.522z M127.081,464.426L59.185,196.274
	c-3.587-15.818,6.328-31.549,22.146-35.136c11.891-2.697,24.212,2.235,30.958,12.392c2.565,3.775,4.209,8.098,4.8,12.624
	l0.936,6.136c0.056,1.048,0.12,2.096,0.28,3.352l10.552,68.784v112h17.192l1.712,11.2l11.776,76.8H127.081z M175.729,464.426
	l-8.2-53.776l-5.216-34.224h41.416l4.688,88H175.729z M257.241,464.426h-32.8l-4.672-88h41.888L257.241,464.426z M305.961,464.426
	h-32.696l4.392-88h41.464L305.961,464.426z M278.457,360.426h-133.6v-80h192v80H278.457z M421.177,197.018l-66.576,267.408h-32.456
	l13.16-88h17.552v-112l11.048-79.2c2.513-15.965,17.494-26.87,33.459-24.357c15.965,2.513,26.87,17.494,24.357,33.459
	c-0.142,0.902-0.326,1.797-0.552,2.682L421.177,197.018z"/>
<path d="M88.857,56.426c-0.007-4.118-0.823-8.196-2.4-12c1.577-3.804,2.393-7.882,2.4-12c0.045-17.624-14.206-31.949-31.83-31.994
	C47.136,0.407,37.791,4.97,31.729,12.786C14.056,12.936-0.149,27.384,0.001,45.058S14.6,76.936,32.273,76.786
	c11.178,13.626,31.286,15.61,44.912,4.432C84.607,75.13,88.893,66.024,88.857,56.426z M43.097,64.426l-3.272-4.568l-5.328,0.752
	c-0.542,0.09-1.09,0.141-1.64,0.152c-8.837,0-16-7.163-16-16s7.163-16,16-16c0.665,0.038,1.328,0.116,1.984,0.232l5.424,0.688
	l2.608-4.8c4.138-7.763,13.785-10.702,21.548-6.564c5.209,2.776,8.455,8.206,8.436,14.108c-0.014,2.82-0.788,5.583-2.24,8l-2.344,4
	l2.344,4c1.452,2.417,2.226,5.18,2.24,8c0,8.837-7.163,16-16,16C51.166,72.428,45.911,69.373,43.097,64.426z"/>
<path d="M480.857,48.426c0.045-17.624-14.206-31.949-31.83-31.994c-9.891-0.025-19.236,4.538-25.298,12.354
	c-17.673,0.15-31.878,14.599-31.728,32.272s14.599,31.878,32.272,31.728c11.178,13.626,31.286,15.61,44.912,4.432
	c7.421-6.088,11.708-15.193,11.672-24.792c-0.007-4.118-0.823-8.196-2.4-12C480.034,56.621,480.85,52.544,480.857,48.426z
	 M462.617,64.426c1.452,2.417,2.226,5.18,2.24,8c0,8.837-7.163,16-16,16c-5.692,0.002-10.946-3.053-13.76-8l-3.272-4.568
	l-5.328,0.752c-0.544,0.098-1.095,0.157-1.648,0.176c-8.837,0-16-7.163-16-16s7.163-16,16-16c0.665,0.038,1.328,0.116,1.984,0.232
	l5.424,0.688l2.608-4.8c4.129-7.767,13.774-10.717,21.541-6.587c5.214,2.772,8.467,8.202,8.451,14.107
	c-0.014,2.82-0.788,5.583-2.24,8l-2.344,4L462.617,64.426z"/>
<g>
</g>
<g>
</g>
<g>
</g>
<g>
</g>
<g>
</g>
<g>
</g>
<g>
</g>
<g>
</g>
<g>
</g>
<g>
</g>
<g>
</g>
<g>
</g>
<g>
</g>
<g>
</g>
<g>
</g>
</svg>
